# xmcd CD database file
#
# Track frame offsets:
#	150
#	11675
#	22125
#	33012
#	44825
#	56350
#	66475
#	78950
#	90800
#	103825
#	115000
#	126025
#	136700
#
# Disc length: 1971 seconds
#
# Revision: 0
# Processed by: cddbd v1.5.2PL0 Copyright (c) Steve Scherf et al.
# Submitted via: CDex 1.51
#
DISCID=a107b10d
DTITLE=Patsy Cline - Showcase On Patsy Cline - Greatest Hits Volume 1
DYEAR=1900
DGENRE=Country
TTITLE0=Walking After Midnight
TTITLE1=I Love You Honey
TTITLE2=Now Too Late (I Cried All The Way To The Alter)
TTITLE3=Never No More
TTITLE4=In Care Of The Blues
TTITLE5=Three Cigarettes In The Ashtray
TTITLE6=Finger Prints
TTITLE7=Today, Tomorrow and Forever
TTITLE8=Through The Eyes Of A Child
TTITLE9=Just Out Of Reach
TTITLE10=I Can't Forget
TTITLE11=I See An Angel
TTITLE12=\\
EXTD=
EXTT0=
EXTT1=
EXTT2=
EXTT3=
EXTT4=
EXTT5=
EXTT6=
EXTT7=
EXTT8=
EXTT9=
EXTT10=
EXTT11=
EXTT12=
PLAYORDER=
